<?xml version="1.0" encoding="UTF-8" standalone="no"?>
<!DOCTYPE svg PUBLIC "-//W3C//DTD SVG 1.1//EN"
 "http://www.w3.org/Graphics/SVG/1.1/DTD/svg11.dtd">
<!-- Generated by graphviz version 2.43.0 (0)
 -->
<!-- Title: %3 Pages: 1 -->
<svg width="691pt" height="356pt"
 viewBox="0.00 0.00 691.00 356.00" xmlns="http://www.w3.org/2000/svg" xmlns:xlink="http://www.w3.org/1999/xlink">
<g id="graph0" class="graph" transform="scale(1 1) rotate(0) translate(4 352)">
<title>%3</title>
<polygon fill="#eeeeee" stroke="transparent" points="-4,4 -4,-352 687,-352 687,4 -4,4"/>
<!-- Polluter_OO -->
<g id="node1" class="node">
<title>Polluter_OO</title>
<g id="a_node1"><a xlink:href="http://Polluter_OO_details.html" xlink:title="&lt;TABLE&gt;">
<polygon fill="#3f51b5" stroke="transparent" points="8.5,-117.5 8.5,-136.5 197.5,-136.5 197.5,-117.5 8.5,-117.5"/>
<polygon fill="none" stroke="black" points="8.5,-117.5 8.5,-136.5 197.5,-136.5 197.5,-117.5 8.5,-117.5"/>
<text text-anchor="start" x="67.5" y="-123.9" font-family="Roboto" font-size="12.00" fill="white">Polluter_OO</text>
<polygon fill="#bbdefb" stroke="transparent" points="8.5,-98.5 8.5,-117.5 82.5,-117.5 82.5,-98.5 8.5,-98.5"/>
<polygon fill="none" stroke="black" points="8.5,-98.5 8.5,-117.5 82.5,-117.5 82.5,-98.5 8.5,-98.5"/>
<text text-anchor="start" x="28" y="-104.9" font-family="Roboto" font-size="12.00">name</text>
<polygon fill="#bbdefb" stroke="transparent" points="82.5,-98.5 82.5,-117.5 197.5,-117.5 197.5,-98.5 82.5,-98.5"/>
<polygon fill="none" stroke="black" points="82.5,-98.5 82.5,-117.5 197.5,-117.5 197.5,-98.5 82.5,-98.5"/>
<text text-anchor="start" x="104.5" y="-104.9" font-family="Roboto" font-size="12.00">CHAR(64) ()</text>
<polygon fill="#bbdefb" stroke="transparent" points="8.5,-79.5 8.5,-98.5 82.5,-98.5 82.5,-79.5 8.5,-79.5"/>
<polygon fill="none" stroke="black" points="8.5,-79.5 8.5,-98.5 82.5,-98.5 82.5,-79.5 8.5,-79.5"/>
<text text-anchor="start" x="27.5" y="-85.9" font-family="Roboto" font-size="12.00">x_geo</text>
<polygon fill="#bbdefb" stroke="transparent" points="82.5,-79.5 82.5,-98.5 197.5,-98.5 197.5,-79.5 82.5,-79.5"/>
<polygon fill="none" stroke="black" points="82.5,-79.5 82.5,-98.5 197.5,-98.5 197.5,-79.5 82.5,-79.5"/>
<text text-anchor="start" x="85.5" y="-85.9" font-family="Roboto" font-size="12.00">NUMERIC(12, 6) ()</text>
<polygon fill="#bbdefb" stroke="transparent" points="8.5,-60.5 8.5,-79.5 82.5,-79.5 82.5,-60.5 8.5,-60.5"/>
<polygon fill="none" stroke="black" points="8.5,-60.5 8.5,-79.5 82.5,-79.5 82.5,-60.5 8.5,-60.5"/>
<text text-anchor="start" x="27.5" y="-66.9" font-family="Roboto" font-size="12.00">y_geo</text>
<polygon fill="#bbdefb" stroke="transparent" points="82.5,-60.5 82.5,-79.5 197.5,-79.5 197.5,-60.5 82.5,-60.5"/>
<polygon fill="none" stroke="black" points="82.5,-60.5 82.5,-79.5 197.5,-79.5 197.5,-60.5 82.5,-60.5"/>
<text text-anchor="start" x="85.5" y="-66.9" font-family="Roboto" font-size="12.00">NUMERIC(12, 6) ()</text>
<polygon fill="#bbdefb" stroke="transparent" points="8.5,-41.5 8.5,-60.5 82.5,-60.5 82.5,-41.5 8.5,-41.5"/>
<polygon fill="none" stroke="black" points="8.5,-41.5 8.5,-60.5 82.5,-60.5 82.5,-41.5 8.5,-41.5"/>
<text text-anchor="start" x="40" y="-47.9" font-family="Roboto" font-size="12.00">id</text>
<polygon fill="#bbdefb" stroke="transparent" points="82.5,-41.5 82.5,-60.5 197.5,-60.5 197.5,-41.5 82.5,-41.5"/>
<polygon fill="none" stroke="black" points="82.5,-41.5 82.5,-60.5 197.5,-60.5 197.5,-41.5 82.5,-41.5"/>
<text text-anchor="start" x="97" y="-47.9" font-family="Roboto" font-size="12.00">CHAR(36) (PK)</text>
<polygon fill="#bbdefb" stroke="transparent" points="8.5,-22.5 8.5,-41.5 82.5,-41.5 82.5,-22.5 8.5,-22.5"/>
<polygon fill="none" stroke="black" points="8.5,-22.5 8.5,-41.5 82.5,-41.5 82.5,-22.5 8.5,-22.5"/>
<text text-anchor="start" x="13.5" y="-28.9" font-family="Roboto" font-size="12.00">created_at</text>
<polygon fill="#bbdefb" stroke="transparent" points="82.5,-22.5 82.5,-41.5 197.5,-41.5 197.5,-22.5 82.5,-22.5"/>
<polygon fill="none" stroke="black" points="82.5,-22.5 82.5,-41.5 197.5,-41.5 197.5,-22.5 82.5,-22.5"/>
<text text-anchor="start" x="98.5" y="-28.9" font-family="Roboto" font-size="12.00">TIMESTAMP ()</text>
<polygon fill="#bbdefb" stroke="transparent" points="8.5,-3.5 8.5,-22.5 82.5,-22.5 82.5,-3.5 8.5,-3.5"/>
<polygon fill="none" stroke="black" points="8.5,-3.5 8.5,-22.5 82.5,-22.5 82.5,-3.5 8.5,-3.5"/>
<text text-anchor="start" x="11.5" y="-9.9" font-family="Roboto" font-size="12.00">updated_at</text>
<polygon fill="#bbdefb" stroke="transparent" points="82.5,-3.5 82.5,-22.5 197.5,-22.5 197.5,-3.5 82.5,-3.5"/>
<polygon fill="none" stroke="black" points="82.5,-3.5 82.5,-22.5 197.5,-22.5 197.5,-3.5 82.5,-3.5"/>
<text text-anchor="start" x="98.5" y="-9.9" font-family="Roboto" font-size="12.00">TIMESTAMP ()</text>
</a>
</g>
</g>
<!-- Recycler_MNO -->
<g id="node2" class="node">
<title>Recycler_MNO</title>
<g id="a_node2"><a xlink:href="http://Recycler_MNO_details.html" xlink:title="&lt;TABLE&gt;">
<polygon fill="#3f51b5" stroke="transparent" points="475.5,-117.5 475.5,-136.5 664.5,-136.5 664.5,-117.5 475.5,-117.5"/>
<polygon fill="none" stroke="black" points="475.5,-117.5 475.5,-136.5 664.5,-136.5 664.5,-117.5 475.5,-117.5"/>
<text text-anchor="start" x="526.5" y="-123.9" font-family="Roboto" font-size="12.00" fill="white">Recycler_MNO</text>
<polygon fill="#bbdefb" stroke="transparent" points="475.5,-98.5 475.5,-117.5 549.5,-117.5 549.5,-98.5 475.5,-98.5"/>
<polygon fill="none" stroke="black" points="475.5,-98.5 475.5,-117.5 549.5,-117.5 549.5,-98.5 475.5,-98.5"/>
<text text-anchor="start" x="495" y="-104.9" font-family="Roboto" font-size="12.00">name</text>
<polygon fill="#bbdefb" stroke="transparent" points="549.5,-98.5 549.5,-117.5 664.5,-117.5 664.5,-98.5 549.5,-98.5"/>
<polygon fill="none" stroke="black" points="549.5,-98.5 549.5,-117.5 664.5,-117.5 664.5,-98.5 549.5,-98.5"/>
<text text-anchor="start" x="571.5" y="-104.9" font-family="Roboto" font-size="12.00">CHAR(64) ()</text>
<polygon fill="#bbdefb" stroke="transparent" points="475.5,-79.5 475.5,-98.5 549.5,-98.5 549.5,-79.5 475.5,-79.5"/>
<polygon fill="none" stroke="black" points="475.5,-79.5 475.5,-98.5 549.5,-98.5 549.5,-79.5 475.5,-79.5"/>
<text text-anchor="start" x="494.5" y="-85.9" font-family="Roboto" font-size="12.00">x_geo</text>
<polygon fill="#bbdefb" stroke="transparent" points="549.5,-79.5 549.5,-98.5 664.5,-98.5 664.5,-79.5 549.5,-79.5"/>
<polygon fill="none" stroke="black" points="549.5,-79.5 549.5,-98.5 664.5,-98.5 664.5,-79.5 549.5,-79.5"/>
<text text-anchor="start" x="552.5" y="-85.9" font-family="Roboto" font-size="12.00">NUMERIC(12, 6) ()</text>
<polygon fill="#bbdefb" stroke="transparent" points="475.5,-60.5 475.5,-79.5 549.5,-79.5 549.5,-60.5 475.5,-60.5"/>
<polygon fill="none" stroke="black" points="475.5,-60.5 475.5,-79.5 549.5,-79.5 549.5,-60.5 475.5,-60.5"/>
<text text-anchor="start" x="494.5" y="-66.9" font-family="Roboto" font-size="12.00">y_geo</text>
<polygon fill="#bbdefb" stroke="transparent" points="549.5,-60.5 549.5,-79.5 664.5,-79.5 664.5,-60.5 549.5,-60.5"/>
<polygon fill="none" stroke="black" points="549.5,-60.5 549.5,-79.5 664.5,-79.5 664.5,-60.5 549.5,-60.5"/>
<text text-anchor="start" x="552.5" y="-66.9" font-family="Roboto" font-size="12.00">NUMERIC(12, 6) ()</text>
<polygon fill="#bbdefb" stroke="transparent" points="475.5,-41.5 475.5,-60.5 549.5,-60.5 549.5,-41.5 475.5,-41.5"/>
<polygon fill="none" stroke="black" points="475.5,-41.5 475.5,-60.5 549.5,-60.5 549.5,-41.5 475.5,-41.5"/>
<text text-anchor="start" x="507" y="-47.9" font-family="Roboto" font-size="12.00">id</text>
<polygon fill="#bbdefb" stroke="transparent" points="549.5,-41.5 549.5,-60.5 664.5,-60.5 664.5,-41.5 549.5,-41.5"/>
<polygon fill="none" stroke="black" points="549.5,-41.5 549.5,-60.5 664.5,-60.5 664.5,-41.5 549.5,-41.5"/>
<text text-anchor="start" x="564" y="-47.9" font-family="Roboto" font-size="12.00">CHAR(36) (PK)</text>
<polygon fill="#bbdefb" stroke="transparent" points="475.5,-22.5 475.5,-41.5 549.5,-41.5 549.5,-22.5 475.5,-22.5"/>
<polygon fill="none" stroke="black" points="475.5,-22.5 475.5,-41.5 549.5,-41.5 549.5,-22.5 475.5,-22.5"/>
<text text-anchor="start" x="480.5" y="-28.9" font-family="Roboto" font-size="12.00">created_at</text>
<polygon fill="#bbdefb" stroke="transparent" points="549.5,-22.5 549.5,-41.5 664.5,-41.5 664.5,-22.5 549.5,-22.5"/>
<polygon fill="none" stroke="black" points="549.5,-22.5 549.5,-41.5 664.5,-41.5 664.5,-22.5 549.5,-22.5"/>
<text text-anchor="start" x="565.5" y="-28.9" font-family="Roboto" font-size="12.00">TIMESTAMP ()</text>
<polygon fill="#bbdefb" stroke="transparent" points="475.5,-3.5 475.5,-22.5 549.5,-22.5 549.5,-3.5 475.5,-3.5"/>
<polygon fill="none" stroke="black" points="475.5,-3.5 475.5,-22.5 549.5,-22.5 549.5,-3.5 475.5,-3.5"/>
<text text-anchor="start" x="478.5" y="-9.9" font-family="Roboto" font-size="12.00">updated_at</text>
<polygon fill="#bbdefb" stroke="transparent" points="549.5,-3.5 549.5,-22.5 664.5,-22.5 664.5,-3.5 549.5,-3.5"/>
<polygon fill="none" stroke="black" points="549.5,-3.5 549.5,-22.5 664.5,-22.5 664.5,-3.5 549.5,-3.5"/>
<text text-anchor="start" x="565.5" y="-9.9" font-family="Roboto" font-size="12.00">TIMESTAMP ()</text>
</a>
</g>
</g>
<!-- WasteCategory -->
<g id="node3" class="node">
<title>WasteCategory</title>
<g id="a_node3"><a xlink:href="http://WasteCategory_details.html" xlink:title="&lt;TABLE&gt;">
<polygon fill="#3f51b5" stroke="transparent" points="231.5,-98.5 231.5,-117.5 423.5,-117.5 423.5,-98.5 231.5,-98.5"/>
<polygon fill="none" stroke="black" points="231.5,-98.5 231.5,-117.5 423.5,-117.5 423.5,-98.5 231.5,-98.5"/>
<text text-anchor="start" x="281.5" y="-104.9" font-family="Roboto" font-size="12.00" fill="white">WasteCategory</text>
<polygon fill="#bbdefb" stroke="transparent" points="231.5,-79.5 231.5,-98.5 331.5,-98.5 331.5,-79.5 231.5,-79.5"/>
<polygon fill="none" stroke="black" points="231.5,-79.5 231.5,-98.5 331.5,-98.5 331.5,-79.5 231.5,-79.5"/>
<text text-anchor="start" x="254.5" y="-85.9" font-family="Roboto" font-size="12.00">category</text>
<polygon fill="#bbdefb" stroke="transparent" points="331.5,-79.5 331.5,-98.5 423.5,-98.5 423.5,-79.5 331.5,-79.5"/>
<polygon fill="none" stroke="black" points="331.5,-79.5 331.5,-98.5 423.5,-98.5 423.5,-79.5 331.5,-79.5"/>
<text text-anchor="start" x="334.5" y="-85.9" font-family="Roboto" font-size="12.00">CHAR(32) (PK)</text>
<polygon fill="#bbdefb" stroke="transparent" points="231.5,-60.5 231.5,-79.5 331.5,-79.5 331.5,-60.5 231.5,-60.5"/>
<polygon fill="none" stroke="black" points="231.5,-60.5 231.5,-79.5 331.5,-79.5 331.5,-60.5 231.5,-60.5"/>
<text text-anchor="start" x="234.5" y="-66.9" font-family="Roboto" font-size="12.00">time_to_recycle</text>
<polygon fill="#bbdefb" stroke="transparent" points="331.5,-60.5 331.5,-79.5 423.5,-79.5 423.5,-60.5 331.5,-60.5"/>
<polygon fill="none" stroke="black" points="331.5,-60.5 331.5,-79.5 423.5,-79.5 423.5,-60.5 331.5,-60.5"/>
<text text-anchor="start" x="340.5" y="-66.9" font-family="Roboto" font-size="12.00">DATETIME ()</text>
<polygon fill="#bbdefb" stroke="transparent" points="231.5,-41.5 231.5,-60.5 331.5,-60.5 331.5,-41.5 231.5,-41.5"/>
<polygon fill="none" stroke="black" points="231.5,-41.5 231.5,-60.5 331.5,-60.5 331.5,-41.5 231.5,-41.5"/>
<text text-anchor="start" x="249.5" y="-47.9" font-family="Roboto" font-size="12.00">created_at</text>
<polygon fill="#bbdefb" stroke="transparent" points="331.5,-41.5 331.5,-60.5 423.5,-60.5 423.5,-41.5 331.5,-41.5"/>
<polygon fill="none" stroke="black" points="331.5,-41.5 331.5,-60.5 423.5,-60.5 423.5,-41.5 331.5,-41.5"/>
<text text-anchor="start" x="336" y="-47.9" font-family="Roboto" font-size="12.00">TIMESTAMP ()</text>
<polygon fill="#bbdefb" stroke="transparent" points="231.5,-22.5 231.5,-41.5 331.5,-41.5 331.5,-22.5 231.5,-22.5"/>
<polygon fill="none" stroke="black" points="231.5,-22.5 231.5,-41.5 331.5,-41.5 331.5,-22.5 231.5,-22.5"/>
<text text-anchor="start" x="247.5" y="-28.9" font-family="Roboto" font-size="12.00">updated_at</text>
<polygon fill="#bbdefb" stroke="transparent" points="331.5,-22.5 331.5,-41.5 423.5,-41.5 423.5,-22.5 331.5,-22.5"/>
<polygon fill="none" stroke="black" points="331.5,-22.5 331.5,-41.5 423.5,-41.5 423.5,-22.5 331.5,-22.5"/>
<text text-anchor="start" x="336" y="-28.9" font-family="Roboto" font-size="12.00">TIMESTAMP ()</text>
</a>
</g>
</g>
<!-- RecyclerStorage -->
<g id="node4" class="node">
<title>RecyclerStorage</title>
<g id="a_node4"><a xlink:href="http://RecyclerStorage_details.html" xlink:title="&lt;TABLE&gt;">
<polygon fill="#3f51b5" stroke="transparent" points="470.5,-315 470.5,-334 675.5,-334 675.5,-315 470.5,-315"/>
<polygon fill="none" stroke="black" points="470.5,-315 470.5,-334 675.5,-334 675.5,-315 470.5,-315"/>
<text text-anchor="start" x="523.5" y="-321.4" font-family="Roboto" font-size="12.00" fill="white">RecyclerStorage</text>
<polygon fill="#bbdefb" stroke="transparent" points="470.5,-296 470.5,-315 583.5,-315 583.5,-296 470.5,-296"/>
<polygon fill="none" stroke="black" points="470.5,-296 470.5,-315 583.5,-315 583.5,-296 470.5,-296"/>
<text text-anchor="start" x="494.5" y="-302.4" font-family="Roboto" font-size="12.00">recycler_id</text>
<polygon fill="#bbdefb" stroke="transparent" points="583.5,-296 583.5,-315 675.5,-315 675.5,-296 583.5,-296"/>
<polygon fill="none" stroke="black" points="583.5,-296 583.5,-315 675.5,-315 675.5,-296 583.5,-296"/>
<text text-anchor="start" x="586.5" y="-302.4" font-family="Roboto" font-size="12.00">CHAR(36) (PK)</text>
<polygon fill="#bbdefb" stroke="transparent" points="470.5,-277 470.5,-296 583.5,-296 583.5,-277 470.5,-277"/>
<polygon fill="none" stroke="black" points="470.5,-277 470.5,-296 583.5,-296 583.5,-277 470.5,-277"/>
<text text-anchor="start" x="500" y="-283.4" font-family="Roboto" font-size="12.00">category</text>
<polygon fill="#bbdefb" stroke="transparent" points="583.5,-277 583.5,-296 675.5,-296 675.5,-277 583.5,-277"/>
<polygon fill="none" stroke="black" points="583.5,-277 583.5,-296 675.5,-296 675.5,-277 583.5,-277"/>
<text text-anchor="start" x="586.5" y="-283.4" font-family="Roboto" font-size="12.00">CHAR(32) (PK)</text>
<polygon fill="#bbdefb" stroke="transparent" points="470.5,-258 470.5,-277 583.5,-277 583.5,-258 470.5,-258"/>
<polygon fill="none" stroke="black" points="470.5,-258 470.5,-277 583.5,-277 583.5,-258 470.5,-258"/>
<text text-anchor="start" x="501.5" y="-264.4" font-family="Roboto" font-size="12.00">capacity</text>
<polygon fill="#bbdefb" stroke="transparent" points="583.5,-258 583.5,-277 675.5,-277 675.5,-258 583.5,-258"/>
<polygon fill="none" stroke="black" points="583.5,-258 583.5,-277 675.5,-277 675.5,-258 583.5,-258"/>
<text text-anchor="start" x="596.5" y="-264.4" font-family="Roboto" font-size="12.00">INTEGER ()</text>
<polygon fill="#bbdefb" stroke="transparent" points="470.5,-239 470.5,-258 583.5,-258 583.5,-239 470.5,-239"/>
<polygon fill="none" stroke="black" points="470.5,-239 470.5,-258 583.5,-258 583.5,-239 470.5,-239"/>
<text text-anchor="start" x="473.5" y="-245.4" font-family="Roboto" font-size="12.00">amount_occupied</text>
<polygon fill="#bbdefb" stroke="transparent" points="583.5,-239 583.5,-258 675.5,-258 675.5,-239 583.5,-239"/>
<polygon fill="none" stroke="black" points="583.5,-239 583.5,-258 675.5,-258 675.5,-239 583.5,-239"/>
<text text-anchor="start" x="596.5" y="-245.4" font-family="Roboto" font-size="12.00">INTEGER ()</text>
<polygon fill="#bbdefb" stroke="transparent" points="470.5,-220 470.5,-239 583.5,-239 583.5,-220 470.5,-220"/>
<polygon fill="none" stroke="black" points="470.5,-220 470.5,-239 583.5,-239 583.5,-220 470.5,-220"/>
<text text-anchor="start" x="495" y="-226.4" font-family="Roboto" font-size="12.00">created_at</text>
<polygon fill="#bbdefb" stroke="transparent" points="583.5,-220 583.5,-239 675.5,-239 675.5,-220 583.5,-220"/>
<polygon fill="none" stroke="black" points="583.5,-220 583.5,-239 675.5,-239 675.5,-220 583.5,-220"/>
<text text-anchor="start" x="588" y="-226.4" font-family="Roboto" font-size="12.00">TIMESTAMP ()</text>
<polygon fill="#bbdefb" stroke="transparent" points="470.5,-201 470.5,-220 583.5,-220 583.5,-201 470.5,-201"/>
<polygon fill="none" stroke="black" points="470.5,-201 470.5,-220 583.5,-220 583.5,-201 470.5,-201"/>
<text text-anchor="start" x="493" y="-207.4" font-family="Roboto" font-size="12.00">updated_at</text>
<polygon fill="#bbdefb" stroke="transparent" points="583.5,-201 583.5,-220 675.5,-220 675.5,-201 583.5,-201"/>
<polygon fill="none" stroke="black" points="583.5,-201 583.5,-220 675.5,-220 675.5,-201 583.5,-201"/>
<text text-anchor="start" x="588" y="-207.4" font-family="Roboto" font-size="12.00">TIMESTAMP ()</text>
</a>
</g>
</g>
<!-- RecyclerStorage&#45;&gt;Recycler_MNO -->
<g id="edge1" class="edge">
<title>RecyclerStorage&#45;&gt;Recycler_MNO</title>
<g id="a_edge1"><a xlink:title="Relation between RecyclerStorage and Recycler_MNO">
<path fill="none" stroke="#1e88e5" stroke-dasharray="5,2" d="M571.43,-197.25C571.2,-182.46 570.96,-166.73 570.73,-151.59"/>
<polygon fill="#1e88e5" stroke="#1e88e5" points="574.22,-151.17 570.57,-141.23 567.22,-151.28 574.22,-151.17"/>
</a>
</g>
<text text-anchor="middle" x="590.5" y="-162" font-family="Roboto" font-size="10.00">recycler</text>
</g>
<!-- RecyclerStorage&#45;&gt;WasteCategory -->
<g id="edge2" class="edge">
<title>RecyclerStorage&#45;&gt;WasteCategory</title>
<g id="a_edge2"><a xlink:title="Relation between RecyclerStorage and WasteCategory">
<path fill="none" stroke="#1e88e5" stroke-dasharray="5,2" d="M502.02,-197.46C487.66,-184.25 472.38,-170.87 457.5,-159 444.25,-148.44 429.76,-137.83 415.41,-127.84"/>
<polygon fill="#1e88e5" stroke="#1e88e5" points="417.2,-124.82 406.98,-122.03 413.23,-130.58 417.2,-124.82"/>
</a>
</g>
<text text-anchor="middle" x="508" y="-162" font-family="Roboto" font-size="10.00">WasteCategory</text>
</g>
<!-- PolluterWaste -->
<g id="node5" class="node">
<title>PolluterWaste</title>
<g id="a_node5"><a xlink:href="http://PolluterWaste_details.html" xlink:title="&lt;TABLE&gt;">
<polygon fill="#3f51b5" stroke="transparent" points="32.5,-315 32.5,-334 198.5,-334 198.5,-315 32.5,-315"/>
<polygon fill="none" stroke="black" points="32.5,-315 32.5,-334 198.5,-334 198.5,-315 32.5,-315"/>
<text text-anchor="start" x="74.5" y="-321.4" font-family="Roboto" font-size="12.00" fill="white">PolluterWaste</text>
<polygon fill="#bbdefb" stroke="transparent" points="32.5,-296 32.5,-315 106.5,-315 106.5,-296 32.5,-296"/>
<polygon fill="none" stroke="black" points="32.5,-296 32.5,-315 106.5,-315 106.5,-296 32.5,-296"/>
<text text-anchor="start" x="38" y="-302.4" font-family="Roboto" font-size="12.00">polluter_id</text>
<polygon fill="#bbdefb" stroke="transparent" points="106.5,-296 106.5,-315 198.5,-315 198.5,-296 106.5,-296"/>
<polygon fill="none" stroke="black" points="106.5,-296 106.5,-315 198.5,-315 198.5,-296 106.5,-296"/>
<text text-anchor="start" x="117" y="-302.4" font-family="Roboto" font-size="12.00">CHAR(36) ()</text>
<polygon fill="#bbdefb" stroke="transparent" points="32.5,-277 32.5,-296 106.5,-296 106.5,-277 32.5,-277"/>
<polygon fill="none" stroke="black" points="32.5,-277 32.5,-296 106.5,-296 106.5,-277 32.5,-277"/>
<text text-anchor="start" x="46" y="-283.4" font-family="Roboto" font-size="12.00">amount</text>
<polygon fill="#bbdefb" stroke="transparent" points="106.5,-277 106.5,-296 198.5,-296 198.5,-277 106.5,-277"/>
<polygon fill="none" stroke="black" points="106.5,-277 106.5,-296 198.5,-296 198.5,-277 106.5,-277"/>
<text text-anchor="start" x="119.5" y="-283.4" font-family="Roboto" font-size="12.00">INTEGER ()</text>
<polygon fill="#bbdefb" stroke="transparent" points="32.5,-258 32.5,-277 106.5,-277 106.5,-258 32.5,-258"/>
<polygon fill="none" stroke="black" points="32.5,-258 32.5,-277 106.5,-277 106.5,-258 32.5,-258"/>
<text text-anchor="start" x="42.5" y="-264.4" font-family="Roboto" font-size="12.00">category</text>
<polygon fill="#bbdefb" stroke="transparent" points="106.5,-258 106.5,-277 198.5,-277 198.5,-258 106.5,-258"/>
<polygon fill="none" stroke="black" points="106.5,-258 106.5,-277 198.5,-277 198.5,-258 106.5,-258"/>
<text text-anchor="start" x="117" y="-264.4" font-family="Roboto" font-size="12.00">CHAR(32) ()</text>
<polygon fill="#bbdefb" stroke="transparent" points="32.5,-239 32.5,-258 106.5,-258 106.5,-239 32.5,-239"/>
<polygon fill="none" stroke="black" points="32.5,-239 32.5,-258 106.5,-258 106.5,-239 32.5,-239"/>
<text text-anchor="start" x="64" y="-245.4" font-family="Roboto" font-size="12.00">id</text>
<polygon fill="#bbdefb" stroke="transparent" points="106.5,-239 106.5,-258 198.5,-258 198.5,-239 106.5,-239"/>
<polygon fill="none" stroke="black" points="106.5,-239 106.5,-258 198.5,-258 198.5,-239 106.5,-239"/>
<text text-anchor="start" x="109.5" y="-245.4" font-family="Roboto" font-size="12.00">CHAR(36) (PK)</text>
<polygon fill="#bbdefb" stroke="transparent" points="32.5,-220 32.5,-239 106.5,-239 106.5,-220 32.5,-220"/>
<polygon fill="none" stroke="black" points="32.5,-220 32.5,-239 106.5,-239 106.5,-220 32.5,-220"/>
<text text-anchor="start" x="37.5" y="-226.4" font-family="Roboto" font-size="12.00">created_at</text>
<polygon fill="#bbdefb" stroke="transparent" points="106.5,-220 106.5,-239 198.5,-239 198.5,-220 106.5,-220"/>
<polygon fill="none" stroke="black" points="106.5,-220 106.5,-239 198.5,-239 198.5,-220 106.5,-220"/>
<text text-anchor="start" x="111" y="-226.4" font-family="Roboto" font-size="12.00">TIMESTAMP ()</text>
<polygon fill="#bbdefb" stroke="transparent" points="32.5,-201 32.5,-220 106.5,-220 106.5,-201 32.5,-201"/>
<polygon fill="none" stroke="black" points="32.5,-201 32.5,-220 106.5,-220 106.5,-201 32.5,-201"/>
<text text-anchor="start" x="35.5" y="-207.4" font-family="Roboto" font-size="12.00">updated_at</text>
<polygon fill="#bbdefb" stroke="transparent" points="106.5,-201 106.5,-220 198.5,-220 198.5,-201 106.5,-201"/>
<polygon fill="none" stroke="black" points="106.5,-201 106.5,-220 198.5,-220 198.5,-201 106.5,-201"/>
<text text-anchor="start" x="111" y="-207.4" font-family="Roboto" font-size="12.00">TIMESTAMP ()</text>
</a>
</g>
</g>
<!-- PolluterWaste&#45;&gt;Polluter_OO -->
<g id="edge3" class="edge">
<title>PolluterWaste&#45;&gt;Polluter_OO</title>
<g id="a_edge3"><a xlink:title="Relation between PolluterWaste and Polluter_OO">
<path fill="none" stroke="#1e88e5" stroke-dasharray="5,2" d="M110.86,-197.25C109.88,-182.46 108.83,-166.73 107.83,-151.59"/>
<polygon fill="#1e88e5" stroke="#1e88e5" points="111.29,-150.97 107.14,-141.23 104.31,-151.44 111.29,-150.97"/>
</a>
</g>
<text text-anchor="middle" x="128.5" y="-162" font-family="Roboto" font-size="10.00">polluter</text>
</g>
<!-- PolluterWaste&#45;&gt;WasteCategory -->
<g id="edge4" class="edge">
<title>PolluterWaste&#45;&gt;WasteCategory</title>
<g id="a_edge4"><a xlink:title="Relation between PolluterWaste and WasteCategory">
<path fill="none" stroke="#1e88e5" stroke-dasharray="5,2" d="M191.14,-197.25C215.39,-174.89 241.95,-150.39 265.14,-129"/>
<polygon fill="#1e88e5" stroke="#1e88e5" points="267.57,-131.53 272.55,-122.18 262.82,-126.38 267.57,-131.53"/>
</a>
</g>
<text text-anchor="middle" x="266" y="-162" font-family="Roboto" font-size="10.00">WasteCategory</text>
</g>
<!-- RecyclerWaste -->
<g id="node6" class="node">
<title>RecyclerWaste</title>
<g id="a_node6"><a xlink:href="http://RecyclerWaste_details.html" xlink:title="&lt;TABLE&gt;">
<polygon fill="#3f51b5" stroke="transparent" points="252.5,-325 252.5,-344 427.5,-344 427.5,-325 252.5,-325"/>
<polygon fill="none" stroke="black" points="252.5,-325 252.5,-344 427.5,-344 427.5,-325 252.5,-325"/>
<text text-anchor="start" x="296" y="-331.4" font-family="Roboto" font-size="12.00" fill="white">RecyclerWaste</text>
<polygon fill="#bbdefb" stroke="transparent" points="252.5,-306 252.5,-325 335.5,-325 335.5,-306 252.5,-306"/>
<polygon fill="none" stroke="black" points="252.5,-306 252.5,-325 335.5,-325 335.5,-306 252.5,-306"/>
<text text-anchor="start" x="261.5" y="-312.4" font-family="Roboto" font-size="12.00">recycler_id</text>
<polygon fill="#bbdefb" stroke="transparent" points="335.5,-306 335.5,-325 427.5,-325 427.5,-306 335.5,-306"/>
<polygon fill="none" stroke="black" points="335.5,-306 335.5,-325 427.5,-325 427.5,-306 335.5,-306"/>
<text text-anchor="start" x="346" y="-312.4" font-family="Roboto" font-size="12.00">CHAR(36) ()</text>
<polygon fill="#bbdefb" stroke="transparent" points="252.5,-287 252.5,-306 335.5,-306 335.5,-287 252.5,-287"/>
<polygon fill="none" stroke="black" points="252.5,-287 252.5,-306 335.5,-306 335.5,-287 252.5,-287"/>
<text text-anchor="start" x="255.5" y="-293.4" font-family="Roboto" font-size="12.00">release_time</text>
<polygon fill="#bbdefb" stroke="transparent" points="335.5,-287 335.5,-306 427.5,-306 427.5,-287 335.5,-287"/>
<polygon fill="none" stroke="black" points="335.5,-287 335.5,-306 427.5,-306 427.5,-287 335.5,-287"/>
<text text-anchor="start" x="340" y="-293.4" font-family="Roboto" font-size="12.00">TIMESTAMP ()</text>
<polygon fill="#bbdefb" stroke="transparent" points="252.5,-268 252.5,-287 335.5,-287 335.5,-268 252.5,-268"/>
<polygon fill="none" stroke="black" points="252.5,-268 252.5,-287 335.5,-287 335.5,-268 252.5,-268"/>
<text text-anchor="start" x="270.5" y="-274.4" font-family="Roboto" font-size="12.00">amount</text>
<polygon fill="#bbdefb" stroke="transparent" points="335.5,-268 335.5,-287 427.5,-287 427.5,-268 335.5,-268"/>
<polygon fill="none" stroke="black" points="335.5,-268 335.5,-287 427.5,-287 427.5,-268 335.5,-268"/>
<text text-anchor="start" x="348.5" y="-274.4" font-family="Roboto" font-size="12.00">INTEGER ()</text>
<polygon fill="#bbdefb" stroke="transparent" points="252.5,-249 252.5,-268 335.5,-268 335.5,-249 252.5,-249"/>
<polygon fill="none" stroke="black" points="252.5,-249 252.5,-268 335.5,-268 335.5,-249 252.5,-249"/>
<text text-anchor="start" x="267" y="-255.4" font-family="Roboto" font-size="12.00">category</text>
<polygon fill="#bbdefb" stroke="transparent" points="335.5,-249 335.5,-268 427.5,-268 427.5,-249 335.5,-249"/>
<polygon fill="none" stroke="black" points="335.5,-249 335.5,-268 427.5,-268 427.5,-249 335.5,-249"/>
<text text-anchor="start" x="346" y="-255.4" font-family="Roboto" font-size="12.00">CHAR(32) ()</text>
<polygon fill="#bbdefb" stroke="transparent" points="252.5,-230 252.5,-249 335.5,-249 335.5,-230 252.5,-230"/>
<polygon fill="none" stroke="black" points="252.5,-230 252.5,-249 335.5,-249 335.5,-230 252.5,-230"/>
<text text-anchor="start" x="288.5" y="-236.4" font-family="Roboto" font-size="12.00">id</text>
<polygon fill="#bbdefb" stroke="transparent" points="335.5,-230 335.5,-249 427.5,-249 427.5,-230 335.5,-230"/>
<polygon fill="none" stroke="black" points="335.5,-230 335.5,-249 427.5,-249 427.5,-230 335.5,-230"/>
<text text-anchor="start" x="338.5" y="-236.4" font-family="Roboto" font-size="12.00">CHAR(36) (PK)</text>
<polygon fill="#bbdefb" stroke="transparent" points="252.5,-211 252.5,-230 335.5,-230 335.5,-211 252.5,-211"/>
<polygon fill="none" stroke="black" points="252.5,-211 252.5,-230 335.5,-230 335.5,-211 252.5,-211"/>
<text text-anchor="start" x="262" y="-217.4" font-family="Roboto" font-size="12.00">created_at</text>
<polygon fill="#bbdefb" stroke="transparent" points="335.5,-211 335.5,-230 427.5,-230 427.5,-211 335.5,-211"/>
<polygon fill="none" stroke="black" points="335.5,-211 335.5,-230 427.5,-230 427.5,-211 335.5,-211"/>
<text text-anchor="start" x="340" y="-217.4" font-family="Roboto" font-size="12.00">TIMESTAMP ()</text>
<polygon fill="#bbdefb" stroke="transparent" points="252.5,-192 252.5,-211 335.5,-211 335.5,-192 252.5,-192"/>
<polygon fill="none" stroke="black" points="252.5,-192 252.5,-211 335.5,-211 335.5,-192 252.5,-192"/>
<text text-anchor="start" x="260" y="-198.4" font-family="Roboto" font-size="12.00">updated_at</text>
<polygon fill="#bbdefb" stroke="transparent" points="335.5,-192 335.5,-211 427.5,-211 427.5,-192 335.5,-192"/>
<polygon fill="none" stroke="black" points="335.5,-192 335.5,-211 427.5,-211 427.5,-192 335.5,-192"/>
<text text-anchor="start" x="340" y="-198.4" font-family="Roboto" font-size="12.00">TIMESTAMP ()</text>
</a>
</g>
</g>
<!-- RecyclerWaste&#45;&gt;Recycler_MNO -->
<g id="edge5" class="edge">
<title>RecyclerWaste&#45;&gt;Recycler_MNO</title>
<g id="a_edge5"><a xlink:title="Relation between RecyclerWaste and Recycler_MNO">
<path fill="none" stroke="#1e88e5" stroke-dasharray="5,2" d="M390.55,-187.85C398.9,-177.54 407.97,-167.6 417.5,-159 425.42,-151.86 440.38,-142.08 457.94,-131.63"/>
<polygon fill="#1e88e5" stroke="#1e88e5" points="459.9,-134.54 466.75,-126.46 456.36,-128.5 459.9,-134.54"/>
</a>
</g>
<text text-anchor="middle" x="437.5" y="-162" font-family="Roboto" font-size="10.00">recycler</text>
</g>
<!-- RecyclerWaste&#45;&gt;WasteCategory -->
<g id="edge6" class="edge">
<title>RecyclerWaste&#45;&gt;WasteCategory</title>
<g id="a_edge6"><a xlink:title="Relation between RecyclerWaste and WasteCategory">
<path fill="none" stroke="#1e88e5" stroke-dasharray="5,2" d="M320.61,-187.96C319.55,-178.25 319.07,-168.43 319.5,-159 319.89,-150.36 320.51,-141.26 321.22,-132.33"/>
<polygon fill="#1e88e5" stroke="#1e88e5" points="324.71,-132.6 322.06,-122.34 317.73,-132.01 324.71,-132.6"/>
</a>
</g>
<text text-anchor="middle" x="357" y="-162" font-family="Roboto" font-size="10.00">WasteCategory</text>
</g>
</g>
</svg>
