<?xml version='1.0' encoding='UTF-8'?>
<!DOCTYPE svg PUBLIC "-//W3C//DTD SVG 1.1//EN" "http://www.w3.org/Graphics/SVG/1.1/DTD/svg11.dtd">
<!-- Generated by graphviz version 2.43.0 (0)
 -->
<!-- Title: %3 Pages: 1 -->
<svg xmlns="http://www.w3.org/2000/svg" xmlns:xlink="http://www.w3.org/1999/xlink" width="718pt" height="356pt" viewBox="0.00 0.00 717.50 356.00">
  <style>
    @import url("https://fonts.googleapis.com/css?family=Roboto:400,400i,700,700i");
    </style>
  <g id="graph0" class="graph" transform="scale(1 1) rotate(0) translate(4 352)">
    <title>%3</title>
    <polygon fill="#eeeeee" stroke="transparent" points="-4,4 -4,-352 713.5,-352 713.5,4 -4,4"/>
    <!-- Polluter_OO -->
    <g id="node1" class="table-hover">
      <title>Polluter_OO</title>
      <g id="a_node1">
        <a xlink:href="http://Polluter_OO_details.html" xlink:title="&lt;TABLE&gt;">
          <polygon fill="#3f51b5" stroke="transparent" points="8.5,-117.5 8.5,-136.5 197.5,-136.5 197.5,-117.5 8.5,-117.5"/>
          <polygon fill="none" stroke="black" points="8.5,-117.5 8.5,-136.5 197.5,-136.5 197.5,-117.5 8.5,-117.5"/>
          <text text-anchor="start" x="67.5" y="-123.9" font-family="Roboto" font-size="12.00" fill="white">Polluter_OO</text>
          <polygon fill="#bbdefb" stroke="transparent" points="8.5,-98.5 8.5,-117.5 82.5,-117.5 82.5,-98.5 8.5,-98.5"/>
          <polygon fill="none" stroke="black" points="8.5,-98.5 8.5,-117.5 82.5,-117.5 82.5,-98.5 8.5,-98.5"/>
          <text text-anchor="start" x="28" y="-104.9" font-family="Roboto" font-size="12.00">name</text>
          <polygon fill="#bbdefb" stroke="transparent" points="82.5,-98.5 82.5,-117.5 197.5,-117.5 197.5,-98.5 82.5,-98.5"/>
          <polygon fill="none" stroke="black" points="82.5,-98.5 82.5,-117.5 197.5,-117.5 197.5,-98.5 82.5,-98.5"/>
          <text text-anchor="start" x="93" y="-104.9" font-family="Roboto" font-size="12.00">VARCHAR(64) ()</text>
          <polygon fill="#bbdefb" stroke="transparent" points="8.5,-79.5 8.5,-98.5 82.5,-98.5 82.5,-79.5 8.5,-79.5"/>
          <polygon fill="none" stroke="black" points="8.5,-79.5 8.5,-98.5 82.5,-98.5 82.5,-79.5 8.5,-79.5"/>
          <text text-anchor="start" x="27.5" y="-85.9" font-family="Roboto" font-size="12.00">x_geo</text>
          <polygon fill="#bbdefb" stroke="transparent" points="82.5,-79.5 82.5,-98.5 197.5,-98.5 197.5,-79.5 82.5,-79.5"/>
          <polygon fill="none" stroke="black" points="82.5,-79.5 82.5,-98.5 197.5,-98.5 197.5,-79.5 82.5,-79.5"/>
          <text text-anchor="start" x="85.5" y="-85.9" font-family="Roboto" font-size="12.00">NUMERIC(12, 6) ()</text>
          <polygon fill="#bbdefb" stroke="transparent" points="8.5,-60.5 8.5,-79.5 82.5,-79.5 82.5,-60.5 8.5,-60.5"/>
          <polygon fill="none" stroke="black" points="8.5,-60.5 8.5,-79.5 82.5,-79.5 82.5,-60.5 8.5,-60.5"/>
          <text text-anchor="start" x="27.5" y="-66.9" font-family="Roboto" font-size="12.00">y_geo</text>
          <polygon fill="#bbdefb" stroke="transparent" points="82.5,-60.5 82.5,-79.5 197.5,-79.5 197.5,-60.5 82.5,-60.5"/>
          <polygon fill="none" stroke="black" points="82.5,-60.5 82.5,-79.5 197.5,-79.5 197.5,-60.5 82.5,-60.5"/>
          <text text-anchor="start" x="85.5" y="-66.9" font-family="Roboto" font-size="12.00">NUMERIC(12, 6) ()</text>
          <polygon fill="#bbdefb" stroke="transparent" points="8.5,-41.5 8.5,-60.5 82.5,-60.5 82.5,-41.5 8.5,-41.5"/>
          <polygon fill="none" stroke="black" points="8.5,-41.5 8.5,-60.5 82.5,-60.5 82.5,-41.5 8.5,-41.5"/>
          <text text-anchor="start" x="40" y="-47.9" font-family="Roboto" font-size="12.00">id</text>
          <polygon fill="#bbdefb" stroke="transparent" points="82.5,-41.5 82.5,-60.5 197.5,-60.5 197.5,-41.5 82.5,-41.5"/>
          <polygon fill="none" stroke="black" points="82.5,-41.5 82.5,-60.5 197.5,-60.5 197.5,-41.5 82.5,-41.5"/>
          <text text-anchor="start" x="97" y="-47.9" font-family="Roboto" font-size="12.00">CHAR(36) (PK)</text>
          <polygon fill="#bbdefb" stroke="transparent" points="8.5,-22.5 8.5,-41.5 82.5,-41.5 82.5,-22.5 8.5,-22.5"/>
          <polygon fill="none" stroke="black" points="8.5,-22.5 8.5,-41.5 82.5,-41.5 82.5,-22.5 8.5,-22.5"/>
          <text text-anchor="start" x="13.5" y="-28.9" font-family="Roboto" font-size="12.00">created_at</text>
          <polygon fill="#bbdefb" stroke="transparent" points="82.5,-22.5 82.5,-41.5 197.5,-41.5 197.5,-22.5 82.5,-22.5"/>
          <polygon fill="none" stroke="black" points="82.5,-22.5 82.5,-41.5 197.5,-41.5 197.5,-22.5 82.5,-22.5"/>
          <text text-anchor="start" x="98.5" y="-28.9" font-family="Roboto" font-size="12.00">TIMESTAMP ()</text>
          <polygon fill="#bbdefb" stroke="transparent" points="8.5,-3.5 8.5,-22.5 82.5,-22.5 82.5,-3.5 8.5,-3.5"/>
          <polygon fill="none" stroke="black" points="8.5,-3.5 8.5,-22.5 82.5,-22.5 82.5,-3.5 8.5,-3.5"/>
          <text text-anchor="start" x="11.5" y="-9.9" font-family="Roboto" font-size="12.00">updated_at</text>
          <polygon fill="#bbdefb" stroke="transparent" points="82.5,-3.5 82.5,-22.5 197.5,-22.5 197.5,-3.5 82.5,-3.5"/>
          <polygon fill="none" stroke="black" points="82.5,-3.5 82.5,-22.5 197.5,-22.5 197.5,-3.5 82.5,-3.5"/>
          <text text-anchor="start" x="98.5" y="-9.9" font-family="Roboto" font-size="12.00">TIMESTAMP ()</text>
        </a>
      </g>
    </g>
    <!-- Recycler_MNO -->
    <g id="node2" class="table-hover">
      <title>Recycler_MNO</title>
      <g id="a_node2">
        <a xlink:href="http://Recycler_MNO_details.html" xlink:title="&lt;TABLE&gt;">
          <polygon fill="#3f51b5" stroke="transparent" points="491.5,-117.5 491.5,-136.5 680.5,-136.5 680.5,-117.5 491.5,-117.5"/>
          <polygon fill="none" stroke="black" points="491.5,-117.5 491.5,-136.5 680.5,-136.5 680.5,-117.5 491.5,-117.5"/>
          <text text-anchor="start" x="542.5" y="-123.9" font-family="Roboto" font-size="12.00" fill="white">Recycler_MNO</text>
          <polygon fill="#bbdefb" stroke="transparent" points="491.5,-98.5 491.5,-117.5 565.5,-117.5 565.5,-98.5 491.5,-98.5"/>
          <polygon fill="none" stroke="black" points="491.5,-98.5 491.5,-117.5 565.5,-117.5 565.5,-98.5 491.5,-98.5"/>
          <text text-anchor="start" x="511" y="-104.9" font-family="Roboto" font-size="12.00">name</text>
          <polygon fill="#bbdefb" stroke="transparent" points="565.5,-98.5 565.5,-117.5 680.5,-117.5 680.5,-98.5 565.5,-98.5"/>
          <polygon fill="none" stroke="black" points="565.5,-98.5 565.5,-117.5 680.5,-117.5 680.5,-98.5 565.5,-98.5"/>
          <text text-anchor="start" x="576" y="-104.9" font-family="Roboto" font-size="12.00">VARCHAR(64) ()</text>
          <polygon fill="#bbdefb" stroke="transparent" points="491.5,-79.5 491.5,-98.5 565.5,-98.5 565.5,-79.5 491.5,-79.5"/>
          <polygon fill="none" stroke="black" points="491.5,-79.5 491.5,-98.5 565.5,-98.5 565.5,-79.5 491.5,-79.5"/>
          <text text-anchor="start" x="510.5" y="-85.9" font-family="Roboto" font-size="12.00">x_geo</text>
          <polygon fill="#bbdefb" stroke="transparent" points="565.5,-79.5 565.5,-98.5 680.5,-98.5 680.5,-79.5 565.5,-79.5"/>
          <polygon fill="none" stroke="black" points="565.5,-79.5 565.5,-98.5 680.5,-98.5 680.5,-79.5 565.5,-79.5"/>
          <text text-anchor="start" x="568.5" y="-85.9" font-family="Roboto" font-size="12.00">NUMERIC(12, 6) ()</text>
          <polygon fill="#bbdefb" stroke="transparent" points="491.5,-60.5 491.5,-79.5 565.5,-79.5 565.5,-60.5 491.5,-60.5"/>
          <polygon fill="none" stroke="black" points="491.5,-60.5 491.5,-79.5 565.5,-79.5 565.5,-60.5 491.5,-60.5"/>
          <text text-anchor="start" x="510.5" y="-66.9" font-family="Roboto" font-size="12.00">y_geo</text>
          <polygon fill="#bbdefb" stroke="transparent" points="565.5,-60.5 565.5,-79.5 680.5,-79.5 680.5,-60.5 565.5,-60.5"/>
          <polygon fill="none" stroke="black" points="565.5,-60.5 565.5,-79.5 680.5,-79.5 680.5,-60.5 565.5,-60.5"/>
          <text text-anchor="start" x="568.5" y="-66.9" font-family="Roboto" font-size="12.00">NUMERIC(12, 6) ()</text>
          <polygon fill="#bbdefb" stroke="transparent" points="491.5,-41.5 491.5,-60.5 565.5,-60.5 565.5,-41.5 491.5,-41.5"/>
          <polygon fill="none" stroke="black" points="491.5,-41.5 491.5,-60.5 565.5,-60.5 565.5,-41.5 491.5,-41.5"/>
          <text text-anchor="start" x="523" y="-47.9" font-family="Roboto" font-size="12.00">id</text>
          <polygon fill="#bbdefb" stroke="transparent" points="565.5,-41.5 565.5,-60.5 680.5,-60.5 680.5,-41.5 565.5,-41.5"/>
          <polygon fill="none" stroke="black" points="565.5,-41.5 565.5,-60.5 680.5,-60.5 680.5,-41.5 565.5,-41.5"/>
          <text text-anchor="start" x="580" y="-47.9" font-family="Roboto" font-size="12.00">CHAR(36) (PK)</text>
          <polygon fill="#bbdefb" stroke="transparent" points="491.5,-22.5 491.5,-41.5 565.5,-41.5 565.5,-22.5 491.5,-22.5"/>
          <polygon fill="none" stroke="black" points="491.5,-22.5 491.5,-41.5 565.5,-41.5 565.5,-22.5 491.5,-22.5"/>
          <text text-anchor="start" x="496.5" y="-28.9" font-family="Roboto" font-size="12.00">created_at</text>
          <polygon fill="#bbdefb" stroke="transparent" points="565.5,-22.5 565.5,-41.5 680.5,-41.5 680.5,-22.5 565.5,-22.5"/>
          <polygon fill="none" stroke="black" points="565.5,-22.5 565.5,-41.5 680.5,-41.5 680.5,-22.5 565.5,-22.5"/>
          <text text-anchor="start" x="581.5" y="-28.9" font-family="Roboto" font-size="12.00">TIMESTAMP ()</text>
          <polygon fill="#bbdefb" stroke="transparent" points="491.5,-3.5 491.5,-22.5 565.5,-22.5 565.5,-3.5 491.5,-3.5"/>
          <polygon fill="none" stroke="black" points="491.5,-3.5 491.5,-22.5 565.5,-22.5 565.5,-3.5 491.5,-3.5"/>
          <text text-anchor="start" x="494.5" y="-9.9" font-family="Roboto" font-size="12.00">updated_at</text>
          <polygon fill="#bbdefb" stroke="transparent" points="565.5,-3.5 565.5,-22.5 680.5,-22.5 680.5,-3.5 565.5,-3.5"/>
          <polygon fill="none" stroke="black" points="565.5,-3.5 565.5,-22.5 680.5,-22.5 680.5,-3.5 565.5,-3.5"/>
          <text text-anchor="start" x="581.5" y="-9.9" font-family="Roboto" font-size="12.00">TIMESTAMP ()</text>
        </a>
      </g>
    </g>
    <!-- WasteCategory -->
    <g id="node3" class="table-hover">
      <title>WasteCategory</title>
      <g id="a_node3">
        <a xlink:href="http://WasteCategory_details.html" xlink:title="&lt;TABLE&gt;">
          <polygon fill="#3f51b5" stroke="transparent" points="231.5,-98.5 231.5,-117.5 446.5,-117.5 446.5,-98.5 231.5,-98.5"/>
          <polygon fill="none" stroke="black" points="231.5,-98.5 231.5,-117.5 446.5,-117.5 446.5,-98.5 231.5,-98.5"/>
          <text text-anchor="start" x="293" y="-104.9" font-family="Roboto" font-size="12.00" fill="white">WasteCategory</text>
          <polygon fill="#bbdefb" stroke="transparent" points="231.5,-79.5 231.5,-98.5 331.5,-98.5 331.5,-79.5 231.5,-79.5"/>
          <polygon fill="none" stroke="black" points="231.5,-79.5 231.5,-98.5 331.5,-98.5 331.5,-79.5 231.5,-79.5"/>
          <text text-anchor="start" x="254.5" y="-85.9" font-family="Roboto" font-size="12.00">category</text>
          <polygon fill="#bbdefb" stroke="transparent" points="331.5,-79.5 331.5,-98.5 446.5,-98.5 446.5,-79.5 331.5,-79.5"/>
          <polygon fill="none" stroke="black" points="331.5,-79.5 331.5,-98.5 446.5,-98.5 446.5,-79.5 331.5,-79.5"/>
          <text text-anchor="start" x="334.5" y="-85.9" font-family="Roboto" font-size="12.00">VARCHAR(32) (PK)</text>
          <polygon fill="#bbdefb" stroke="transparent" points="231.5,-60.5 231.5,-79.5 331.5,-79.5 331.5,-60.5 231.5,-60.5"/>
          <polygon fill="none" stroke="black" points="231.5,-60.5 231.5,-79.5 331.5,-79.5 331.5,-60.5 231.5,-60.5"/>
          <text text-anchor="start" x="234.5" y="-66.9" font-family="Roboto" font-size="12.00">time_to_recycle</text>
          <polygon fill="#bbdefb" stroke="transparent" points="331.5,-60.5 331.5,-79.5 446.5,-79.5 446.5,-60.5 331.5,-60.5"/>
          <polygon fill="none" stroke="black" points="331.5,-60.5 331.5,-79.5 446.5,-79.5 446.5,-60.5 331.5,-60.5"/>
          <text text-anchor="start" x="352" y="-66.9" font-family="Roboto" font-size="12.00">DATETIME ()</text>
          <polygon fill="#bbdefb" stroke="transparent" points="231.5,-41.5 231.5,-60.5 331.5,-60.5 331.5,-41.5 231.5,-41.5"/>
          <polygon fill="none" stroke="black" points="231.5,-41.5 231.5,-60.5 331.5,-60.5 331.5,-41.5 231.5,-41.5"/>
          <text text-anchor="start" x="249.5" y="-47.9" font-family="Roboto" font-size="12.00">created_at</text>
          <polygon fill="#bbdefb" stroke="transparent" points="331.5,-41.5 331.5,-60.5 446.5,-60.5 446.5,-41.5 331.5,-41.5"/>
          <polygon fill="none" stroke="black" points="331.5,-41.5 331.5,-60.5 446.5,-60.5 446.5,-41.5 331.5,-41.5"/>
          <text text-anchor="start" x="347.5" y="-47.9" font-family="Roboto" font-size="12.00">TIMESTAMP ()</text>
          <polygon fill="#bbdefb" stroke="transparent" points="231.5,-22.5 231.5,-41.5 331.5,-41.5 331.5,-22.5 231.5,-22.5"/>
          <polygon fill="none" stroke="black" points="231.5,-22.5 231.5,-41.5 331.5,-41.5 331.5,-22.5 231.5,-22.5"/>
          <text text-anchor="start" x="247.5" y="-28.9" font-family="Roboto" font-size="12.00">updated_at</text>
          <polygon fill="#bbdefb" stroke="transparent" points="331.5,-22.5 331.5,-41.5 446.5,-41.5 446.5,-22.5 331.5,-22.5"/>
          <polygon fill="none" stroke="black" points="331.5,-22.5 331.5,-41.5 446.5,-41.5 446.5,-22.5 331.5,-22.5"/>
          <text text-anchor="start" x="347.5" y="-28.9" font-family="Roboto" font-size="12.00">TIMESTAMP ()</text>
        </a>
      </g>
    </g>
    <!-- RecyclerStorage -->
    <g id="node4" class="table-hover">
      <title>RecyclerStorage</title>
      <g id="a_node4">
        <a xlink:href="http://RecyclerStorage_details.html" xlink:title="&lt;TABLE&gt;">
          <polygon fill="#3f51b5" stroke="transparent" points="473.5,-315 473.5,-334 701.5,-334 701.5,-315 473.5,-315"/>
          <polygon fill="none" stroke="black" points="473.5,-315 473.5,-334 701.5,-334 701.5,-315 473.5,-315"/>
          <text text-anchor="start" x="538" y="-321.4" font-family="Roboto" font-size="12.00" fill="white">RecyclerStorage</text>
          <polygon fill="#bbdefb" stroke="transparent" points="473.5,-296 473.5,-315 586.5,-315 586.5,-296 473.5,-296"/>
          <polygon fill="none" stroke="black" points="473.5,-296 473.5,-315 586.5,-315 586.5,-296 473.5,-296"/>
          <text text-anchor="start" x="497.5" y="-302.4" font-family="Roboto" font-size="12.00">recycler_id</text>
          <polygon fill="#bbdefb" stroke="transparent" points="586.5,-296 586.5,-315 701.5,-315 701.5,-296 586.5,-296"/>
          <polygon fill="none" stroke="black" points="586.5,-296 586.5,-315 701.5,-315 701.5,-296 586.5,-296"/>
          <text text-anchor="start" x="601" y="-302.4" font-family="Roboto" font-size="12.00">CHAR(36) (PK)</text>
          <polygon fill="#bbdefb" stroke="transparent" points="473.5,-277 473.5,-296 586.5,-296 586.5,-277 473.5,-277"/>
          <polygon fill="none" stroke="black" points="473.5,-277 473.5,-296 586.5,-296 586.5,-277 473.5,-277"/>
          <text text-anchor="start" x="503" y="-283.4" font-family="Roboto" font-size="12.00">category</text>
          <polygon fill="#bbdefb" stroke="transparent" points="586.5,-277 586.5,-296 701.5,-296 701.5,-277 586.5,-277"/>
          <polygon fill="none" stroke="black" points="586.5,-277 586.5,-296 701.5,-296 701.5,-277 586.5,-277"/>
          <text text-anchor="start" x="589.5" y="-283.4" font-family="Roboto" font-size="12.00">VARCHAR(32) (PK)</text>
          <polygon fill="#bbdefb" stroke="transparent" points="473.5,-258 473.5,-277 586.5,-277 586.5,-258 473.5,-258"/>
          <polygon fill="none" stroke="black" points="473.5,-258 473.5,-277 586.5,-277 586.5,-258 473.5,-258"/>
          <text text-anchor="start" x="504.5" y="-264.4" font-family="Roboto" font-size="12.00">capacity</text>
          <polygon fill="#bbdefb" stroke="transparent" points="586.5,-258 586.5,-277 701.5,-277 701.5,-258 586.5,-258"/>
          <polygon fill="none" stroke="black" points="586.5,-258 586.5,-277 701.5,-277 701.5,-258 586.5,-258"/>
          <text text-anchor="start" x="611" y="-264.4" font-family="Roboto" font-size="12.00">INTEGER ()</text>
          <polygon fill="#bbdefb" stroke="transparent" points="473.5,-239 473.5,-258 586.5,-258 586.5,-239 473.5,-239"/>
          <polygon fill="none" stroke="black" points="473.5,-239 473.5,-258 586.5,-258 586.5,-239 473.5,-239"/>
          <text text-anchor="start" x="476.5" y="-245.4" font-family="Roboto" font-size="12.00">amount_occupied</text>
          <polygon fill="#bbdefb" stroke="transparent" points="586.5,-239 586.5,-258 701.5,-258 701.5,-239 586.5,-239"/>
          <polygon fill="none" stroke="black" points="586.5,-239 586.5,-258 701.5,-258 701.5,-239 586.5,-239"/>
          <text text-anchor="start" x="611" y="-245.4" font-family="Roboto" font-size="12.00">INTEGER ()</text>
          <polygon fill="#bbdefb" stroke="transparent" points="473.5,-220 473.5,-239 586.5,-239 586.5,-220 473.5,-220"/>
          <polygon fill="none" stroke="black" points="473.5,-220 473.5,-239 586.5,-239 586.5,-220 473.5,-220"/>
          <text text-anchor="start" x="498" y="-226.4" font-family="Roboto" font-size="12.00">created_at</text>
          <polygon fill="#bbdefb" stroke="transparent" points="586.5,-220 586.5,-239 701.5,-239 701.5,-220 586.5,-220"/>
          <polygon fill="none" stroke="black" points="586.5,-220 586.5,-239 701.5,-239 701.5,-220 586.5,-220"/>
          <text text-anchor="start" x="602.5" y="-226.4" font-family="Roboto" font-size="12.00">TIMESTAMP ()</text>
          <polygon fill="#bbdefb" stroke="transparent" points="473.5,-201 473.5,-220 586.5,-220 586.5,-201 473.5,-201"/>
          <polygon fill="none" stroke="black" points="473.5,-201 473.5,-220 586.5,-220 586.5,-201 473.5,-201"/>
          <text text-anchor="start" x="496" y="-207.4" font-family="Roboto" font-size="12.00">updated_at</text>
          <polygon fill="#bbdefb" stroke="transparent" points="586.5,-201 586.5,-220 701.5,-220 701.5,-201 586.5,-201"/>
          <polygon fill="none" stroke="black" points="586.5,-201 586.5,-220 701.5,-220 701.5,-201 586.5,-201"/>
          <text text-anchor="start" x="602.5" y="-207.4" font-family="Roboto" font-size="12.00">TIMESTAMP ()</text>
        </a>
      </g>
    </g>
    <!-- RecyclerStorage&#45;&gt;Recycler_MNO -->
    <g id="edge1" class="edge-hover edge-from-None edge-to-None">
      <title>RecyclerStorage-&gt;Recycler_MNO</title>
      <g id="a_edge1">
        <a xlink:title="Relation between RecyclerStorage and Recycler_MNO">
          <path fill="none" stroke="#1e88e5" stroke-dasharray="5,2" d="M586.79,-197.25C586.64,-182.46 586.47,-166.73 586.32,-151.59"/>
          <polygon fill="#1e88e5" stroke="#1e88e5" points="589.82,-151.19 586.21,-141.23 582.82,-151.26 589.82,-151.19"/>
        </a>
      </g>
      <text text-anchor="middle" x="606.5" y="-162" font-family="Roboto" font-size="10.00">recycler</text>
    </g>
    <!-- RecyclerStorage&#45;&gt;WasteCategory -->
    <g id="edge2" class="edge-hover edge-from-None edge-to-None">
      <title>RecyclerStorage-&gt;WasteCategory</title>
      <g id="a_edge2">
        <a xlink:title="Relation between RecyclerStorage and WasteCategory">
          <path fill="none" stroke="#1e88e5" stroke-dasharray="5,2" d="M516.45,-197.37C501.96,-184.17 486.54,-170.81 471.5,-159 458.05,-148.44 443.34,-137.87 428.76,-127.92"/>
          <polygon fill="#1e88e5" stroke="#1e88e5" points="430.44,-124.83 420.2,-122.14 426.52,-130.64 430.44,-124.83"/>
        </a>
      </g>
      <text text-anchor="middle" x="522" y="-162" font-family="Roboto" font-size="10.00">WasteCategory</text>
    </g>
    <!-- PolluterWaste -->
    <g id="node5" class="table-hover">
      <title>PolluterWaste</title>
      <g id="a_node5">
        <a xlink:href="http://PolluterWaste_details.html" xlink:title="&lt;TABLE&gt;">
          <polygon fill="#3f51b5" stroke="transparent" points="25.5,-315 25.5,-334 199.5,-334 199.5,-315 25.5,-315"/>
          <polygon fill="none" stroke="black" points="25.5,-315 25.5,-334 199.5,-334 199.5,-315 25.5,-315"/>
          <text text-anchor="start" x="71.5" y="-321.4" font-family="Roboto" font-size="12.00" fill="white">PolluterWaste</text>
          <polygon fill="#bbdefb" stroke="transparent" points="25.5,-296 25.5,-315 99.5,-315 99.5,-296 25.5,-296"/>
          <polygon fill="none" stroke="black" points="25.5,-296 25.5,-315 99.5,-315 99.5,-296 25.5,-296"/>
          <text text-anchor="start" x="31" y="-302.4" font-family="Roboto" font-size="12.00">polluter_id</text>
          <polygon fill="#bbdefb" stroke="transparent" points="99.5,-296 99.5,-315 199.5,-315 199.5,-296 99.5,-296"/>
          <polygon fill="none" stroke="black" points="99.5,-296 99.5,-315 199.5,-315 199.5,-296 99.5,-296"/>
          <text text-anchor="start" x="114" y="-302.4" font-family="Roboto" font-size="12.00">CHAR(36) ()</text>
          <polygon fill="#bbdefb" stroke="transparent" points="25.5,-277 25.5,-296 99.5,-296 99.5,-277 25.5,-277"/>
          <polygon fill="none" stroke="black" points="25.5,-277 25.5,-296 99.5,-296 99.5,-277 25.5,-277"/>
          <text text-anchor="start" x="39" y="-283.4" font-family="Roboto" font-size="12.00">amount</text>
          <polygon fill="#bbdefb" stroke="transparent" points="99.5,-277 99.5,-296 199.5,-296 199.5,-277 99.5,-277"/>
          <polygon fill="none" stroke="black" points="99.5,-277 99.5,-296 199.5,-296 199.5,-277 99.5,-277"/>
          <text text-anchor="start" x="116.5" y="-283.4" font-family="Roboto" font-size="12.00">INTEGER ()</text>
          <polygon fill="#bbdefb" stroke="transparent" points="25.5,-258 25.5,-277 99.5,-277 99.5,-258 25.5,-258"/>
          <polygon fill="none" stroke="black" points="25.5,-258 25.5,-277 99.5,-277 99.5,-258 25.5,-258"/>
          <text text-anchor="start" x="35.5" y="-264.4" font-family="Roboto" font-size="12.00">category</text>
          <polygon fill="#bbdefb" stroke="transparent" points="99.5,-258 99.5,-277 199.5,-277 199.5,-258 99.5,-258"/>
          <polygon fill="none" stroke="black" points="99.5,-258 99.5,-277 199.5,-277 199.5,-258 99.5,-258"/>
          <text text-anchor="start" x="102.5" y="-264.4" font-family="Roboto" font-size="12.00">VARCHAR(32) ()</text>
          <polygon fill="#bbdefb" stroke="transparent" points="25.5,-239 25.5,-258 99.5,-258 99.5,-239 25.5,-239"/>
          <polygon fill="none" stroke="black" points="25.5,-239 25.5,-258 99.5,-258 99.5,-239 25.5,-239"/>
          <text text-anchor="start" x="57" y="-245.4" font-family="Roboto" font-size="12.00">id</text>
          <polygon fill="#bbdefb" stroke="transparent" points="99.5,-239 99.5,-258 199.5,-258 199.5,-239 99.5,-239"/>
          <polygon fill="none" stroke="black" points="99.5,-239 99.5,-258 199.5,-258 199.5,-239 99.5,-239"/>
          <text text-anchor="start" x="106.5" y="-245.4" font-family="Roboto" font-size="12.00">CHAR(36) (PK)</text>
          <polygon fill="#bbdefb" stroke="transparent" points="25.5,-220 25.5,-239 99.5,-239 99.5,-220 25.5,-220"/>
          <polygon fill="none" stroke="black" points="25.5,-220 25.5,-239 99.5,-239 99.5,-220 25.5,-220"/>
          <text text-anchor="start" x="30.5" y="-226.4" font-family="Roboto" font-size="12.00">created_at</text>
          <polygon fill="#bbdefb" stroke="transparent" points="99.5,-220 99.5,-239 199.5,-239 199.5,-220 99.5,-220"/>
          <polygon fill="none" stroke="black" points="99.5,-220 99.5,-239 199.5,-239 199.5,-220 99.5,-220"/>
          <text text-anchor="start" x="108" y="-226.4" font-family="Roboto" font-size="12.00">TIMESTAMP ()</text>
          <polygon fill="#bbdefb" stroke="transparent" points="25.5,-201 25.5,-220 99.5,-220 99.5,-201 25.5,-201"/>
          <polygon fill="none" stroke="black" points="25.5,-201 25.5,-220 99.5,-220 99.5,-201 25.5,-201"/>
          <text text-anchor="start" x="28.5" y="-207.4" font-family="Roboto" font-size="12.00">updated_at</text>
          <polygon fill="#bbdefb" stroke="transparent" points="99.5,-201 99.5,-220 199.5,-220 199.5,-201 99.5,-201"/>
          <polygon fill="none" stroke="black" points="99.5,-201 99.5,-220 199.5,-220 199.5,-201 99.5,-201"/>
          <text text-anchor="start" x="108" y="-207.4" font-family="Roboto" font-size="12.00">TIMESTAMP ()</text>
        </a>
      </g>
    </g>
    <!-- PolluterWaste&#45;&gt;Polluter_OO -->
    <g id="edge3" class="edge-hover edge-from-None edge-to-None">
      <title>PolluterWaste-&gt;Polluter_OO</title>
      <g id="a_edge3">
        <a xlink:title="Relation between PolluterWaste and Polluter_OO">
          <path fill="none" stroke="#1e88e5" stroke-dasharray="5,2" d="M108.93,-197.25C108.18,-182.46 107.37,-166.73 106.6,-151.59"/>
          <polygon fill="#1e88e5" stroke="#1e88e5" points="110.07,-151.03 106.07,-141.23 103.08,-151.39 110.07,-151.03"/>
        </a>
      </g>
      <text text-anchor="middle" x="126.5" y="-162" font-family="Roboto" font-size="10.00">polluter</text>
    </g>
    <!-- PolluterWaste&#45;&gt;WasteCategory -->
    <g id="edge4" class="edge-hover edge-from-None edge-to-None">
      <title>PolluterWaste-&gt;WasteCategory</title>
      <g id="a_edge4">
        <a xlink:title="Relation between PolluterWaste and WasteCategory">
          <path fill="none" stroke="#1e88e5" stroke-dasharray="5,2" d="M193.13,-197.25C219.1,-174.79 247.55,-150.18 272.35,-128.73"/>
          <polygon fill="#1e88e5" stroke="#1e88e5" points="274.64,-131.37 279.92,-122.18 270.06,-126.07 274.64,-131.37"/>
        </a>
      </g>
      <text text-anchor="middle" x="270" y="-162" font-family="Roboto" font-size="10.00">WasteCategory</text>
    </g>
    <!-- RecyclerWaste -->
    <g id="node6" class="table-hover">
      <title>RecyclerWaste</title>
      <g id="a_node6">
        <a xlink:href="http://RecyclerWaste_details.html" xlink:title="&lt;TABLE&gt;">
          <polygon fill="#3f51b5" stroke="transparent" points="249.5,-325 249.5,-344 432.5,-344 432.5,-325 249.5,-325"/>
          <polygon fill="none" stroke="black" points="249.5,-325 249.5,-344 432.5,-344 432.5,-325 249.5,-325"/>
          <text text-anchor="start" x="297" y="-331.4" font-family="Roboto" font-size="12.00" fill="white">RecyclerWaste</text>
          <polygon fill="#bbdefb" stroke="transparent" points="249.5,-306 249.5,-325 332.5,-325 332.5,-306 249.5,-306"/>
          <polygon fill="none" stroke="black" points="249.5,-306 249.5,-325 332.5,-325 332.5,-306 249.5,-306"/>
          <text text-anchor="start" x="258.5" y="-312.4" font-family="Roboto" font-size="12.00">recycler_id</text>
          <polygon fill="#bbdefb" stroke="transparent" points="332.5,-306 332.5,-325 432.5,-325 432.5,-306 332.5,-306"/>
          <polygon fill="none" stroke="black" points="332.5,-306 332.5,-325 432.5,-325 432.5,-306 332.5,-306"/>
          <text text-anchor="start" x="347" y="-312.4" font-family="Roboto" font-size="12.00">CHAR(36) ()</text>
          <polygon fill="#bbdefb" stroke="transparent" points="249.5,-287 249.5,-306 332.5,-306 332.5,-287 249.5,-287"/>
          <polygon fill="none" stroke="black" points="249.5,-287 249.5,-306 332.5,-306 332.5,-287 249.5,-287"/>
          <text text-anchor="start" x="252.5" y="-293.4" font-family="Roboto" font-size="12.00">release_time</text>
          <polygon fill="#bbdefb" stroke="transparent" points="332.5,-287 332.5,-306 432.5,-306 432.5,-287 332.5,-287"/>
          <polygon fill="none" stroke="black" points="332.5,-287 332.5,-306 432.5,-306 432.5,-287 332.5,-287"/>
          <text text-anchor="start" x="341" y="-293.4" font-family="Roboto" font-size="12.00">TIMESTAMP ()</text>
          <polygon fill="#bbdefb" stroke="transparent" points="249.5,-268 249.5,-287 332.5,-287 332.5,-268 249.5,-268"/>
          <polygon fill="none" stroke="black" points="249.5,-268 249.5,-287 332.5,-287 332.5,-268 249.5,-268"/>
          <text text-anchor="start" x="267.5" y="-274.4" font-family="Roboto" font-size="12.00">amount</text>
          <polygon fill="#bbdefb" stroke="transparent" points="332.5,-268 332.5,-287 432.5,-287 432.5,-268 332.5,-268"/>
          <polygon fill="none" stroke="black" points="332.5,-268 332.5,-287 432.5,-287 432.5,-268 332.5,-268"/>
          <text text-anchor="start" x="349.5" y="-274.4" font-family="Roboto" font-size="12.00">INTEGER ()</text>
          <polygon fill="#bbdefb" stroke="transparent" points="249.5,-249 249.5,-268 332.5,-268 332.5,-249 249.5,-249"/>
          <polygon fill="none" stroke="black" points="249.5,-249 249.5,-268 332.5,-268 332.5,-249 249.5,-249"/>
          <text text-anchor="start" x="264" y="-255.4" font-family="Roboto" font-size="12.00">category</text>
          <polygon fill="#bbdefb" stroke="transparent" points="332.5,-249 332.5,-268 432.5,-268 432.5,-249 332.5,-249"/>
          <polygon fill="none" stroke="black" points="332.5,-249 332.5,-268 432.5,-268 432.5,-249 332.5,-249"/>
          <text text-anchor="start" x="335.5" y="-255.4" font-family="Roboto" font-size="12.00">VARCHAR(32) ()</text>
          <polygon fill="#bbdefb" stroke="transparent" points="249.5,-230 249.5,-249 332.5,-249 332.5,-230 249.5,-230"/>
          <polygon fill="none" stroke="black" points="249.5,-230 249.5,-249 332.5,-249 332.5,-230 249.5,-230"/>
          <text text-anchor="start" x="285.5" y="-236.4" font-family="Roboto" font-size="12.00">id</text>
          <polygon fill="#bbdefb" stroke="transparent" points="332.5,-230 332.5,-249 432.5,-249 432.5,-230 332.5,-230"/>
          <polygon fill="none" stroke="black" points="332.5,-230 332.5,-249 432.5,-249 432.5,-230 332.5,-230"/>
          <text text-anchor="start" x="339.5" y="-236.4" font-family="Roboto" font-size="12.00">CHAR(36) (PK)</text>
          <polygon fill="#bbdefb" stroke="transparent" points="249.5,-211 249.5,-230 332.5,-230 332.5,-211 249.5,-211"/>
          <polygon fill="none" stroke="black" points="249.5,-211 249.5,-230 332.5,-230 332.5,-211 249.5,-211"/>
          <text text-anchor="start" x="259" y="-217.4" font-family="Roboto" font-size="12.00">created_at</text>
          <polygon fill="#bbdefb" stroke="transparent" points="332.5,-211 332.5,-230 432.5,-230 432.5,-211 332.5,-211"/>
          <polygon fill="none" stroke="black" points="332.5,-211 332.5,-230 432.5,-230 432.5,-211 332.5,-211"/>
          <text text-anchor="start" x="341" y="-217.4" font-family="Roboto" font-size="12.00">TIMESTAMP ()</text>
          <polygon fill="#bbdefb" stroke="transparent" points="249.5,-192 249.5,-211 332.5,-211 332.5,-192 249.5,-192"/>
          <polygon fill="none" stroke="black" points="249.5,-192 249.5,-211 332.5,-211 332.5,-192 249.5,-192"/>
          <text text-anchor="start" x="257" y="-198.4" font-family="Roboto" font-size="12.00">updated_at</text>
          <polygon fill="#bbdefb" stroke="transparent" points="332.5,-192 332.5,-211 432.5,-211 432.5,-192 332.5,-192"/>
          <polygon fill="none" stroke="black" points="332.5,-192 332.5,-211 432.5,-211 432.5,-192 332.5,-192"/>
          <text text-anchor="start" x="341" y="-198.4" font-family="Roboto" font-size="12.00">TIMESTAMP ()</text>
        </a>
      </g>
    </g>
    <!-- RecyclerWaste&#45;&gt;Recycler_MNO -->
    <g id="edge5" class="edge-hover edge-from-None edge-to-None">
      <title>RecyclerWaste-&gt;Recycler_MNO</title>
      <g id="a_edge5">
        <a xlink:title="Relation between RecyclerWaste and Recycler_MNO">
          <path fill="none" stroke="#1e88e5" stroke-dasharray="5,2" d="M401.23,-188C410.8,-177.67 421.02,-167.68 431.5,-159 444.07,-148.59 449.3,-149.04 463.5,-141 466.92,-139.06 470.4,-137.09 473.91,-135.1"/>
          <polygon fill="#1e88e5" stroke="#1e88e5" points="475.71,-138.1 482.68,-130.12 472.26,-132.02 475.71,-138.1"/>
        </a>
      </g>
      <text text-anchor="middle" x="451.5" y="-162" font-family="Roboto" font-size="10.00">recycler</text>
    </g>
    <!-- RecyclerWaste&#45;&gt;WasteCategory -->
    <g id="edge6" class="edge-hover edge-from-None edge-to-None">
      <title>RecyclerWaste-&gt;WasteCategory</title>
      <g id="a_edge6">
        <a xlink:title="Relation between RecyclerWaste and WasteCategory">
          <path fill="none" stroke="#1e88e5" stroke-dasharray="5,2" d="M333.68,-187.99C333.34,-178.23 333.23,-168.39 333.5,-159 333.74,-150.47 334.12,-141.48 334.56,-132.65"/>
          <polygon fill="#1e88e5" stroke="#1e88e5" points="338.07,-132.54 335.1,-122.37 331.08,-132.18 338.07,-132.54"/>
        </a>
      </g>
      <text text-anchor="middle" x="371" y="-162" font-family="Roboto" font-size="10.00">WasteCategory</text>
    </g>
  </g>
</svg>
